# xmcd
# 
# Track frame offsets:
#     150
#     13373
#     30277
#     40998
#     51100
#     67834
#     84379
#     102829
#     122986
#     136207
#     150734
#     163716
# 
# Disc length: 2728
# 
# Revision: 0
# Processed by: cddbd v1.5.2PL0 Copyright (c) Steve Scherf et al.
# Submitted via: fre:ac v1.0.31
# 
DISCID=940aa60c
DTITLE='Weird Al' Yankovic - Mandatory Fun
DYEAR=2014
DGENRE=Comedy
TTITLE0=Handy
TTITLE1=Lame Claim to Fame
TTITLE2=Foil
TTITLE3=Sports Song
TTITLE4=Word Crimes
TTITLE5=My Own Eyes
TTITLE6=Now That's What I Call Polka!
TTITLE7=Mission Statement
TTITLE8=Inactive
TTITLE9=First World Problems
TTITLE10=Tacky
TTITLE11=Jackson Park Express
EXTD=
EXTT0=
EXTT1=
EXTT2=
EXTT3=
EXTT4=
EXTT5=
EXTT6=
EXTT7=
EXTT8=
EXTT9=
EXTT10=
EXTT11=
PLAYORDER=
